<svg width="40" height="40" viewBox="0 0 40 40" fill="none" xmlns="http://www.w3.org/2000/svg">
<rect width="40" height="40" fill="#272727"/>
<path d="M7.56763 19.4595L10.2103 16.8169M10.2103 16.8169L19.4595 7.56763L28.7088 16.8169M10.2103 16.8169V30.0301C10.2103 30.7598 10.8018 31.3514 11.5316 31.3514H15.4956M28.7088 16.8169L31.3514 19.4595M28.7088 16.8169V30.0301C28.7088 30.7598 28.1172 31.3514 27.3874 31.3514H23.4235M15.4956 31.3514C16.2253 31.3514 16.8169 30.7598 16.8169 30.0301V24.7448C16.8169 24.0151 17.4085 23.4235 18.1382 23.4235H20.7808C21.5106 23.4235 22.1022 24.0151 22.1022 24.7448V30.0301C22.1022 30.7598 22.6937 31.3514 23.4235 31.3514M15.4956 31.3514H23.4235" stroke="#F9F9F9" stroke-width="2" stroke-linecap="round" stroke-linejoin="round"/>
</svg>
